<?xml version="1.0" standalone="no"?>
<!DOCTYPE svg PUBLIC "-//W3C//DTD SVG 20010904//EN"
 "http://www.w3.org/TR/2001/REC-SVG-20010904/DTD/svg10.dtd">
<svg version="1.0" xmlns="http://www.w3.org/2000/svg"
 width="467.000000pt" height="467.000000pt" viewBox="0 0 467.000000 467.000000"
 preserveAspectRatio="xMidYMid meet">
<metadata>
Created by potrace 1.14, written by Peter Selinger 2001-2017
</metadata>
<g transform="translate(0.000000,467.000000) scale(0.100000,-0.100000)"
fill="#000000" stroke="none">
<path d="M2278 4525 c-2 -1 -37 -5 -78 -9 -179 -15 -369 -91 -579 -231 -93
-62 -1008 -723 -1092 -789 -15 -12 -38 -30 -53 -40 -71 -51 -203 -175 -246
-232 -87 -113 -180 -309 -196 -412 -3 -20 -9 -53 -13 -72 -13 -58 -14 -150
-14 -770 -1 -702 4 -808 42 -995 37 -183 149 -370 314 -524 152 -142 384 -252
582 -276 28 -4 57 -8 65 -10 48 -14 381 -18 1340 -18 1079 0 1251 3 1385 29
11 2 36 7 55 10 149 25 332 113 475 229 177 144 323 375 359 569 2 11 7 37 11
56 11 58 14 89 21 225 10 166 10 1305 1 1408 -26 279 -155 524 -373 708 -74
63 -226 178 -314 239 -12 8 -30 22 -41 30 -10 8 -31 24 -46 35 -66 47 -407
295 -426 310 -12 8 -56 40 -97 70 -41 30 -79 58 -85 62 -95 76 -324 225 -420
275 -113 59 -247 99 -378 114 -53 6 -195 12 -199 9z m182 -460 c100 -16 180
-51 318 -141 75 -49 308 -212 337 -237 9 -7 481 -351 543 -395 129 -92 327
-244 366 -281 102 -97 172 -240 184 -376 8 -93 8 -1174 -1 -1340 -7 -152 -27
-258 -62 -328 -89 -176 -288 -322 -469 -343 -28 -4 -55 -8 -59 -11 -20 -12
-390 -17 -1302 -17 -1141 0 -1242 3 -1396 44 -128 34 -276 143 -357 264 -98
146 -106 228 -106 1086 0 717 1 727 72 865 63 121 132 182 572 500 91 66 170
123 175 128 6 4 75 55 155 113 80 58 175 127 211 154 136 100 317 220 386 254
126 64 278 85 433 61z"/>
<path d="M1305 1886 c-60 -27 -104 -81 -121 -147 -26 -100 5 -169 129 -284
500 -467 1152 -562 1704 -249 197 112 410 290 454 381 77 158 -56 343 -229
319 -60 -8 -96 -29 -166 -98 -174 -172 -397 -292 -606 -326 -74 -12 -255 -6
-330 12 -80 18 -227 77 -272 108 -14 10 -29 18 -33 18 -16 0 -176 124 -238
185 -108 106 -190 129 -292 81z"/>
</g>
</svg>
